<svg width="2025" height="493" viewBox="0 0 2025 493" fill="none" xmlns="http://www.w3.org/2000/svg">
<path d="M96.5 376H1.8999e-07V375C24 337 35.5 315.5 35.5 262.5V108.5C35.5 62.5 24 44 1.8999e-07 11V9.99997H128L223.5 237L320 9.99997H443V11C419 44 408 62.5 408 108.5V263C408 314 414.5 337 428 375V376H281.5V375C295.5 337 302 315.5 302 262.5V91L185.5 365H169.5L50 91L51.5 263C52 314 66.5 337 96.5 375V376ZM580.082 383.5C505.082 383.5 442.582 323.5 442.582 253C442.582 182.5 505.082 122 580.082 122C655.582 122 718.082 182.5 718.082 253C718.082 323.5 655.582 383.5 580.082 383.5ZM580.582 374.5C608.082 374.5 620.582 329.5 620.582 253C620.582 176.5 608.082 131 580.082 131C552.082 131 540.082 176.5 540.082 253C540.082 329.5 553.082 374.5 580.582 374.5ZM869.375 376H748.375V375C755.375 352 760.875 334.5 760.875 292.5V237.5C760.875 198 755.375 175.5 734.375 150.5V149.5L854.875 119.5V177.5L855.375 178C875.875 157 898.875 117.5 946.875 122L933.375 217.5H930.875C916.875 196 888.375 180.5 875.375 180.5C868.375 180.5 861.875 185 856.875 191V293C856.875 333 862.375 352 869.375 375V376ZM1093.5 375V376H972.496V375C979.996 352 985.496 334.5 985.496 292.5L984.996 237.5C984.496 198 979.496 175.5 958.496 150.5V149.5L1079 119.5V170.5L1081 171C1090 152.5 1117.5 122 1167 122C1210 122 1244 148 1244 190V292.5C1244 333 1249 352 1256.5 375V376H1135.5V375C1143.5 352 1148 333.5 1148 293.5V191.5C1148 174.5 1138.5 163 1119.5 163C1102 163 1088.5 173.5 1081 186V293C1081 333 1086.5 352 1093.5 375ZM1386.97 49.5C1386.97 77.5 1363.97 99.5 1335.47 99.5C1307.97 99.5 1286.47 77.5 1286.47 49.5C1286.47 22.5 1307.97 -1.69277e-05 1335.47 -1.69277e-05C1363.97 -1.69277e-05 1386.97 22.5 1386.97 49.5ZM1285.47 376V375C1292.47 352 1297.97 333 1297.97 292.5V237.5C1297.97 198 1292.47 175.5 1271.47 150.5V149.5L1393.97 119.5V293C1393.97 333 1399.47 352 1406.47 375V376H1285.47ZM1560.29 375V376H1439.29V375C1446.79 352 1452.29 334.5 1452.29 292.5L1451.79 237.5C1451.29 198 1446.29 175.5 1425.29 150.5V149.5L1545.79 119.5V170.5L1547.79 171C1556.79 152.5 1584.29 122 1633.79 122C1676.79 122 1710.79 148 1710.79 190V292.5C1710.79 333 1715.79 352 1723.29 375V376H1602.29V375C1610.29 352 1614.79 333.5 1614.79 293.5V191.5C1614.79 174.5 1605.29 163 1586.29 163C1568.79 163 1555.29 173.5 1547.79 186V293C1547.79 333 1553.29 352 1560.29 375ZM1876.04 288.5C1893.04 288.5 1900.04 261.5 1900.04 210C1900.04 158 1893.54 131 1875.54 131C1857.54 131 1852.04 158 1852.04 210C1852.04 261.5 1859.04 288.5 1876.04 288.5ZM2024.04 405.5C2024.04 461 1965.04 492.5 1868.04 492.5C1791.04 492.5 1747.54 474.5 1747.54 446C1747.54 426 1769.04 412.5 1794.04 406C1765.04 395.5 1753.04 376 1753.04 351.5C1753.04 310 1785.54 289.5 1808.04 282C1778.54 266.5 1761.04 240 1761.04 210C1761.04 160 1807.04 122 1875.54 122C1905.04 122 1930.54 129 1950.04 141L2022.54 95.5L2023.54 96.5V159H2021.54L1960.54 148.5C1980.04 164 1991.04 185.5 1991.04 210C1991.04 260 1944.54 297.5 1876.04 297.5C1853.04 297.5 1832.54 293 1815.54 285.5C1813.54 289 1811.54 294 1811.54 300.5C1811.54 315.5 1819.54 323.5 1854.54 325.5L1896.04 328C1980.54 333 2024.04 359 2024.04 405.5ZM1883.54 481.5C1934.54 481.5 1963.04 468 1963.04 446C1963.04 428 1944.54 420.5 1882.54 417L1835.54 414C1823.04 413 1812.54 411.5 1803.04 409C1800.04 414.5 1797.04 423 1797.04 433C1797.04 470.5 1838.04 481.5 1883.54 481.5Z" fill="#3D3D3A"/>
</svg>
